<svg width="213" height="213" viewBox="0 0 213 213" fill="none" xmlns="http://www.w3.org/2000/svg">
<path d="M133.05 139.761C151.478 130.157 164.074 110.872 164.074 88.6375C164.074 56.818 138.279 31.0232 106.459 31.0232C74.6398 31.0232 48.845 56.818 48.845 88.6375C48.845 110.872 61.44 130.156 79.8681 139.761V159.547C79.8681 166.89 85.8207 172.843 93.1637 172.843H119.755C127.098 172.843 133.05 166.89 133.05 159.547V139.761Z" stroke="#348E2B" stroke-width="8.86373"/>
<path d="M106.46 110.797L106.46 150.684" stroke="#348E2B" stroke-width="8.86373" stroke-linecap="round"/>
<path d="M104.451 106.421L107.689 106.46L108.71 103.386C110.747 97.2524 110.048 90.1881 106.181 84.4146C102.301 78.6215 96.0844 75.4192 89.6772 75.3424L86.4388 75.3036L85.4181 78.3771C83.3811 84.5107 84.0798 91.5751 87.947 97.3486C91.8274 103.142 98.0439 106.344 104.451 106.421Z" fill="#70D767" stroke="#348E2B" stroke-width="8.86373"/>
<path d="M111.837 106.421L108.598 106.46L107.577 103.386C105.54 97.2524 106.239 90.1881 110.106 84.4146C113.987 78.6215 120.203 75.4192 126.61 75.3424L129.849 75.3036L130.87 78.3771C132.906 84.5107 132.208 91.5751 128.341 97.3486C124.46 103.142 118.244 106.344 111.837 106.421Z" fill="#70D767" stroke="#348E2B" stroke-width="8.86373"/>
<path d="M84.3003 155.116H128.619" stroke="#348E2B" stroke-width="8.86373" stroke-linecap="round"/>
</svg>
