<svg width="213" height="213" viewBox="0 0 213 213" fill="none" xmlns="http://www.w3.org/2000/svg">
<mask id="mask0_24_2382" style="mask-type:alpha" maskUnits="userSpaceOnUse" x="26" y="35" width="161" height="142">
<path d="M169.553 52.0602C165.676 48.198 161.073 45.1353 156.009 43.0461C150.945 40.9568 145.518 39.8817 140.037 39.8817C134.556 39.8817 129.129 40.9568 124.065 43.0461C119.001 45.1353 114.398 48.198 110.521 52.0602L106.458 56.106L102.394 52.0595C94.5625 44.2623 83.9452 39.8854 72.8786 39.8854C61.8119 39.8854 51.1947 44.2623 43.3635 52.0595C35.5317 59.8573 31.1283 70.4375 31.1283 81.4736C31.1283 92.5098 35.5317 103.09 43.3635 110.888L50.5542 118.047L103.331 170.595C105.06 172.317 107.855 172.317 109.584 170.595L162.361 118.047L169.551 110.889C173.43 107.028 176.508 102.444 178.609 97.3962C180.709 92.3489 181.791 86.9383 181.791 81.4736C181.791 76.009 180.709 70.5984 178.609 65.551C176.509 60.5043 173.431 55.9203 169.553 52.0602Z" fill="#D9D9D9" stroke="#348E2B" stroke-width="8.8625" stroke-linecap="round" stroke-linejoin="round"/>
</mask>
<g mask="url(#mask0_24_2382)">
<mask id="path-2-outside-1_24_2382" maskUnits="userSpaceOnUse" x="79.3037" y="70.3306" width="50" height="65" fill="black">
<rect fill="white" x="79.3037" y="70.3306" width="50" height="65"/>
<path fill-rule="evenodd" clip-rule="evenodd" d="M104.244 130.524C115.982 125.879 124.185 115.271 124.185 102.928C124.185 90.584 115.982 79.9758 104.244 75.3306C92.5066 79.9758 84.3037 90.584 84.3037 102.928C84.3037 115.271 92.5066 125.879 104.244 130.524Z"/>
</mask>
<path fill-rule="evenodd" clip-rule="evenodd" d="M104.244 130.524C115.982 125.879 124.185 115.271 124.185 102.928C124.185 90.584 115.982 79.9758 104.244 75.3306C92.5066 79.9758 84.3037 90.584 84.3037 102.928C84.3037 115.271 92.5066 125.879 104.244 130.524Z" fill="#70D767"/>
<path d="M104.244 130.524L102.614 134.645L104.244 135.29L105.875 134.645L104.244 130.524ZM104.244 75.3306L105.875 71.2102L104.244 70.5649L102.614 71.2102L104.244 75.3306ZM119.754 102.928C119.754 113.19 112.92 122.325 102.614 126.404L105.875 134.645C119.044 129.433 128.616 117.352 128.616 102.928H119.754ZM102.614 79.4509C112.92 83.5296 119.754 92.6652 119.754 102.928H128.616C128.616 88.5029 119.044 76.4219 105.875 71.2102L102.614 79.4509ZM88.735 102.928C88.735 92.6652 95.5687 83.5296 105.875 79.4509L102.614 71.2102C89.4445 76.4219 79.8725 88.5029 79.8725 102.928H88.735ZM105.875 126.404C95.5687 122.325 88.735 113.19 88.735 102.928H79.8725C79.8725 117.352 89.4445 129.433 102.614 134.645L105.875 126.404Z" fill="#F9FCF8" mask="url(#path-2-outside-1_24_2382)"/>
<mask id="path-4-outside-2_24_2382" maskUnits="userSpaceOnUse" x="72.7441" y="70.4194" width="113.488" height="125.567" fill="black">
<rect fill="white" x="72.7441" y="70.4194" width="113.488" height="125.567"/>
<path fill-rule="evenodd" clip-rule="evenodd" d="M152.855 92.4226C164.4 108.155 166.245 129.928 155.812 147.999C145.379 166.069 125.602 175.357 106.206 173.226C94.661 157.494 92.8157 135.721 103.249 117.65C113.682 99.5801 133.459 90.2919 152.855 92.4226Z"/>
</mask>
<path fill-rule="evenodd" clip-rule="evenodd" d="M152.855 92.4226C164.4 108.155 166.245 129.928 155.812 147.999C145.379 166.069 125.602 175.357 106.206 173.226C94.661 157.494 92.8157 135.721 103.249 117.65C113.682 99.5801 133.459 90.2919 152.855 92.4226Z" fill="#70D767"/>
<path d="M152.855 92.4226L156.427 89.801L155.275 88.2306L153.339 88.0179L152.855 92.4226ZM106.206 173.226L102.633 175.848L103.786 177.418L105.722 177.631L106.206 173.226ZM149.282 95.0443C159.818 109.401 161.503 129.279 151.974 145.783L159.649 150.214C170.987 130.577 168.982 106.909 156.427 89.801L149.282 95.0443ZM151.974 145.783C142.446 162.287 124.39 170.766 106.69 168.821L105.722 177.631C126.814 179.948 148.312 169.851 159.649 150.214L151.974 145.783ZM109.779 170.605C99.243 156.248 97.5576 136.37 107.087 119.866L99.4114 115.434C88.0737 135.072 90.0791 158.74 102.633 175.848L109.779 170.605ZM107.087 119.866C116.615 103.362 134.671 94.8829 152.371 96.8274L153.339 88.0179C132.247 85.7009 110.748 95.7981 99.4114 115.434L107.087 119.866Z" fill="#F9FCF8" mask="url(#path-4-outside-2_24_2382)"/>
<mask id="path-6-outside-3_24_2382" maskUnits="userSpaceOnUse" x="33.0157" y="77.4442" width="102.785" height="109.272" fill="black">
<rect fill="white" x="33.0157" y="77.4442" width="102.785" height="109.272"/>
<path fill-rule="evenodd" clip-rule="evenodd" d="M104.348 167.009C115.468 152.184 116.212 131.188 104.772 115.193C95.2859 101.928 79.8379 95.4807 64.7894 96.934C53.6691 111.759 52.9258 132.755 64.3653 148.75C73.8516 162.015 89.2996 168.462 104.348 167.009Z"/>
</mask>
<path fill-rule="evenodd" clip-rule="evenodd" d="M104.348 167.009C115.468 152.184 116.212 131.188 104.772 115.193C95.2859 101.928 79.8379 95.4807 64.7894 96.934C53.6691 111.759 52.9258 132.755 64.3653 148.75C73.8516 162.015 89.2996 168.462 104.348 167.009Z" fill="#70D767"/>
<path d="M104.348 167.009L104.774 171.42L106.72 171.232L107.893 169.668L104.348 167.009ZM64.7894 96.934L64.3634 92.5232L62.4176 92.7112L61.2446 94.275L64.7894 96.934ZM101.168 117.77C111.463 132.166 110.785 151.044 100.803 164.35L107.893 169.668C120.152 153.325 120.96 130.21 108.377 112.615L101.168 117.77ZM65.2154 101.345C78.7412 100.038 92.6314 105.834 101.168 117.77L108.377 112.615C97.9404 98.0225 80.9346 90.9229 64.3634 92.5232L65.2154 101.345ZM67.9697 146.173C57.6741 131.777 58.3529 112.899 68.3342 99.593L61.2446 94.275C48.9853 110.618 48.1775 133.733 60.761 151.328L67.9697 146.173ZM103.922 162.598C90.3963 163.905 76.5061 158.109 67.9697 146.173L60.761 151.328C71.1971 165.921 88.2029 173.02 104.774 171.42L103.922 162.598Z" fill="#F9FCF8" mask="url(#path-6-outside-3_24_2382)"/>
<path d="M169.553 52.0602C165.676 48.198 161.073 45.1353 156.009 43.0461C150.945 40.9568 145.518 39.8817 140.037 39.8817C134.556 39.8817 129.129 40.9568 124.065 43.0461C119.001 45.1353 114.398 48.198 110.521 52.0602L106.458 56.106L102.394 52.0595C94.5625 44.2623 83.9452 39.8854 72.8786 39.8854C61.8119 39.8854 51.1947 44.2623 43.3635 52.0595C35.5317 59.8573 31.1283 70.4375 31.1283 81.4736C31.1283 92.5098 35.5317 103.09 43.3635 110.888L50.5542 118.047L103.331 170.595C105.06 172.317 107.855 172.317 109.584 170.595L162.361 118.047L169.551 110.889C173.43 107.028 176.508 102.444 178.609 97.3962C180.709 92.3489 181.791 86.9383 181.791 81.4736C181.791 76.009 180.709 70.5984 178.609 65.551C176.509 60.5043 173.431 55.9203 169.553 52.0602Z" stroke="#348E2B" stroke-width="8.8625" stroke-linecap="round" stroke-linejoin="round"/>
</g>
</svg>
