<svg width="213" height="213" viewBox="0 0 213 213" fill="none" xmlns="http://www.w3.org/2000/svg">
<path d="M123.336 34.9228C123.688 34.1532 124.215 33.4666 124.887 32.9056L129.893 28.7204C134.813 24.6078 143.012 29.2097 141.411 35.185L126.251 91.7638C125.371 95.0485 121.662 96.9087 117.968 95.9187L105.667 92.6227C101.577 91.5268 99.3109 87.4537 100.881 84.0204L123.336 34.9228Z" fill="#70D767"/>
<path d="M178.126 118.934C178.896 119.286 179.583 119.814 180.144 120.485L184.329 125.492C188.441 130.411 183.839 138.611 177.864 137.009L121.285 121.849C118.001 120.969 116.14 117.261 117.13 113.566L120.426 101.265C121.522 97.1752 125.595 94.9092 129.029 96.4794L178.126 118.934Z" fill="#70D767"/>
<path d="M41.516 82.5824C40.6734 82.5024 39.8148 82.6163 38.9934 82.917L32.8657 85.1603C26.8442 87.3647 26.73 96.7663 32.7053 98.3673L89.2841 113.528C92.5687 114.408 96.034 112.126 97.0239 108.432L100.32 96.1306C101.416 92.0408 99.0213 88.0418 95.263 87.685L41.516 82.5824Z" fill="#70D767"/>
<path d="M106.51 115.402L106.51 177.439" stroke="#348E2B" stroke-width="17.725" stroke-linecap="round"/>
<circle cx="107.811" cy="103.409" r="22.5899" fill="#348E2B" stroke="#F9FCF8" stroke-width="8.8625"/>
</svg>
